<?xml version="1.0" encoding="utf-8"?>
<!-- Generator: Adobe Illustrator 25.0.1, SVG Export Plug-In . SVG Version: 6.00 Build 0)  -->
<svg version="1.1" xmlns="http://www.w3.org/2000/svg" xmlns:xlink="http://www.w3.org/1999/xlink" x="0px" y="0px"
	 viewBox="0 0 40 40" style="enable-background:new 0 0 40 40;" xml:space="preserve">
<style type="text/css">
	.st0{display:none;}
	.st1{display:inline;}
	.st2{fill:#504F53;}
	.st3{fill:#FFFFFF;}
	.st4{fill:#818084;}
	.st5{fill:#F28E00;}
</style>
<g id="ikona_br_3" class="st0">
	<g class="st1">
		<circle class="st2" cx="20" cy="20" r="20"/>
		<g>
			<path class="st3" d="M23.19,7.32H12.94c-1.41,0-2.55,1.14-2.55,2.54l-0.01,20.28c0,1.39,1.14,2.54,2.55,2.54h0.92v-1.54
				c0-2.23,4.52-3.36,6.78-3.36s6.78,1.12,6.78,3.36v1.54h0.9c1.41,0,2.56-1.14,2.56-2.54V14.92L23.19,7.32z M21.91,16.19V9.22
				l7.05,6.97H21.91z"/>
			<ellipse class="st2" cx="20.63" cy="22.74" rx="3.39" ry="3.36"/>
		</g>
	</g>
	<g class="st1">
		<circle class="st4" cx="120.17" cy="20" r="20"/>
		<g>
			<path class="st3" d="M123.37,7.32h-10.25c-1.41,0-2.55,1.14-2.55,2.54l-0.01,20.28c0,1.39,1.14,2.54,2.55,2.54h0.92v-1.54
				c0-2.23,4.52-3.36,6.78-3.36s6.78,1.12,6.78,3.36v1.54h0.9c1.41,0,2.56-1.14,2.56-2.54V14.92L123.37,7.32z M122.08,16.19V9.22
				l7.05,6.97H122.08z"/>
			<ellipse class="st4" cx="120.8" cy="22.74" rx="3.39" ry="3.36"/>
		</g>
	</g>
	<g class="st1">
		<circle class="st5" cx="70.09" cy="20" r="20"/>
		<g>
			<path class="st3" d="M73.28,7.32H63.03c-1.41,0-2.55,1.14-2.55,2.54l-0.01,20.28c0,1.39,1.14,2.54,2.55,2.54h0.92v-1.54
				c0-2.23,4.52-3.36,6.78-3.36s6.78,1.12,6.78,3.36v1.54h0.9c1.41,0,2.56-1.14,2.56-2.54V14.92L73.28,7.32z M72,16.19V9.22
				l7.05,6.97H72z"/>
			<ellipse class="st5" cx="70.72" cy="22.74" rx="3.39" ry="3.36"/>
		</g>
	</g>
</g>
<g id="ikona_br_2">
	<g>
		<path class="st4" d="M20,0C8.95,0,0,8.95,0,20c0,4.21,1.3,8.11,3.52,11.33v-0.75c0,0,0.1-3.81,6.18-5.34
			c6.08-1.52,5.79-2.9,5.79-5.11s-2.7-1.92-2.7-6.75s1.9-8.5,6.31-8.5s6.31,3.67,6.31,8.5s-2.7,4.54-2.7,6.75
			c0,1.74-0.18,2.96,2.71,4.15l-6.36,6.3l-3.11,9.02C17.25,39.86,18.61,40,20,40c11.05,0,20-8.95,20-20S31.05,0,20,0z"/>
		<polygon class="st3" points="19.33,35.31 20.56,31.53 27.02,25.01 30.08,28.16 23.52,34.49 		"/>
		<polygon class="st3" points="30.36,21.67 33.41,24.82 30.96,27.27 27.91,24.12 		"/>
		<path class="st3" d="M34.6,19.45l1.09,1.13c0.53,0.55,0.53,1.43-0.01,1.97l-1.47,1.47l-3.05-3.15l1.44-1.44
			C33.15,18.88,34.05,18.89,34.6,19.45z"/>
	</g>
</g>
<g id="ikona_br_1" class="st0">
	<g class="st1">
		<g>
			<path class="st2" d="M157.74,33h-1.33v-2.2c-0.04-0.48-0.17-4.02,4.83-5.8c3.95-1.41,5.02-2.44,5.03-2.45l0.05-0.05
				c0.02-0.02,0.61-0.55,0.67-1.77c-0.58-0.74-2.4-3.34-2.4-6.69c0-2.29,0-9.28,6.85-9.28c6.85,0,6.85,6.98,6.85,9.28
				c0,3.87-1.74,5.91-2.39,6.68c0,0-0.01,0.01-0.01,0.01c0.07,1.22,0.65,1.75,0.68,1.77l0.05,0.04c0.23,0.24,0.99,0.9,1.64,1.1
				l-0.39,1.28c-1.06-0.32-2.02-1.26-2.19-1.43c-0.2-0.19-1.13-1.13-1.13-2.99v-0.23l0.14-0.18c0.05-0.06,0.12-0.14,0.2-0.24
				c0.62-0.73,2.07-2.43,2.07-5.81c0-3.93-0.66-7.94-5.52-7.94c-4.86,0-5.52,4.02-5.52,7.94c0,3.38,2.22,6,2.25,6.02l0.16,0.19
				l0,0.25c0,1.86-0.93,2.81-1.13,2.99c-0.21,0.21-1.45,1.31-5.52,2.76c-4.26,1.52-3.95,4.4-3.95,4.43l0.01,0.08V33z"/>
			<path class="st2" d="M169.99,34.87l1.33-4.78l10.48-10.58c0.08-0.09,0.89-0.89,2.02-0.89c0.66,0,1.3,0.28,1.83,0.81l0,0l0,0
				c1.39,1.39,0.8,3.05,0.06,3.83l-10.84,10.6L169.99,34.87z M172.51,30.78l-0.65,2.34l2.36-0.49l10.54-10.31
				c0.13-0.15,0.86-1.04-0.06-1.96l0,0c-0.4-0.4-0.8-0.51-1.26-0.35c-0.4,0.14-0.7,0.43-0.7,0.43L172.51,30.78z"/>
			
				<rect x="182.23" y="20.2" transform="matrix(0.7133 -0.7009 0.7009 0.7133 36.8569 134.5666)" class="st2" width="1.33" height="4.08"/>
			
				<rect x="179.99" y="22.37" transform="matrix(0.7133 -0.7008 0.7008 0.7133 34.6812 133.6075)" class="st2" width="1.33" height="4.08"/>
			
				<rect x="172.57" y="29.92" transform="matrix(0.73 -0.6835 0.6835 0.73 25.0123 126.9959)" class="st2" width="1.33" height="3.85"/>
		</g>
		<path class="st2" d="M171.48,40c-11.03,0-20-8.97-20-20s8.97-20,20-20s20,8.97,20,20S182.51,40,171.48,40z M171.48,1.33
			c-10.29,0-18.67,8.37-18.67,18.67s8.37,18.67,18.67,18.67s18.67-8.37,18.67-18.67S181.78,1.33,171.48,1.33z"/>
	</g>
	<g class="st1">
		<g>
			<path class="st4" d="M6.26,32.88H4.93V30.8c-0.04-0.48-0.17-4.02,4.83-5.8c3.95-1.41,5.02-2.44,5.03-2.45l0.05-0.05
				c0.02-0.02,0.61-0.55,0.67-1.77c-0.58-0.74-2.4-3.34-2.4-6.69c0-2.29,0-9.28,6.85-9.28c6.85,0,6.85,6.98,6.85,9.28
				c0,3.87-1.74,5.91-2.39,6.68c0,0.01-0.01,0.01-0.01,0.02c0.07,1.22,0.65,1.75,0.68,1.77l0.05,0.04c0.23,0.24,0.99,0.9,1.64,1.1
				l-0.39,1.28c-1.06-0.32-2.02-1.26-2.19-1.43c-0.2-0.19-1.13-1.13-1.13-2.99v-0.23l0.14-0.18c0.05-0.06,0.12-0.14,0.2-0.24
				c0.62-0.73,2.07-2.43,2.07-5.81c0-3.93-0.66-7.94-5.52-7.94c-4.86,0-5.52,4.02-5.52,7.94c0,3.38,2.22,6,2.25,6.02l0.16,0.19
				l0,0.25c0,1.86-0.93,2.81-1.13,2.99c-0.21,0.21-1.45,1.31-5.52,2.76c-4.21,1.5-3.96,4.32-3.95,4.43l0,0.08V32.88z"/>
			<path class="st4" d="M18.5,34.87l1.33-4.78l10.48-10.58c0.08-0.09,0.89-0.89,2.02-0.89c0.66-0.01,1.3,0.28,1.83,0.81l0,0l0,0
				c1.39,1.39,0.8,3.05,0.06,3.83l-10.84,10.6L18.5,34.87z M21.03,30.78l-0.65,2.34l2.36-0.49l10.54-10.31
				c0.13-0.15,0.86-1.04-0.06-1.96l0,0c-0.4-0.4-0.8-0.51-1.26-0.35c-0.4,0.14-0.7,0.43-0.7,0.43L21.03,30.78z"/>
			
				<rect x="30.75" y="20.2" transform="matrix(0.7132 -0.7009 0.7009 0.7132 -6.5772 28.395)" class="st4" width="1.33" height="4.08"/>
			
				<rect x="28.51" y="22.37" transform="matrix(0.7134 -0.7008 0.7008 0.7134 -8.7452 27.4413)" class="st4" width="1.33" height="4.08"/>
			
				<rect x="21.08" y="29.92" transform="matrix(0.73 -0.6835 0.6835 0.73 -15.8904 23.462)" class="st4" width="1.33" height="3.85"/>
		</g>
		<path class="st4" d="M20,40C8.97,40,0,31.03,0,20S8.97,0,20,0s20,8.97,20,20S31.03,40,20,40z M20,1.33
			C9.71,1.33,1.33,9.71,1.33,20S9.71,38.67,20,38.67S38.67,30.29,38.67,20S30.29,1.33,20,1.33z"/>
	</g>
	<g class="st1">
		<g>
			<path class="st5" d="M62.71,33.06h-1.33V30.8c-0.04-0.48-0.17-4.02,4.83-5.8c3.95-1.41,5.02-2.44,5.03-2.45l0.05-0.05
				c0.02-0.02,0.61-0.55,0.67-1.77c-0.58-0.74-2.4-3.34-2.4-6.69c0-2.29,0-9.28,6.85-9.28s6.85,6.98,6.85,9.28
				c0,3.87-1.74,5.91-2.39,6.68c0,0.01-0.01,0.01-0.01,0.02c0.07,1.23,0.67,1.76,0.67,1.76l0.05,0.05c0.23,0.24,0.99,0.9,1.64,1.1
				l-0.39,1.28c-1.06-0.32-2.03-1.26-2.19-1.43c-0.2-0.19-1.13-1.13-1.13-2.99v-0.23l0.14-0.18c0.05-0.06,0.12-0.14,0.2-0.24
				c0.62-0.73,2.07-2.43,2.07-5.81c0-3.93-0.66-7.94-5.52-7.94s-5.52,4.02-5.52,7.94c0,3.38,2.22,6,2.25,6.02l0.16,0.19l0,0.25
				c0,1.86-0.93,2.81-1.13,2.99c-0.21,0.21-1.45,1.31-5.52,2.76c-4.21,1.5-3.96,4.32-3.95,4.43l0,0.08V33.06z"/>
			<path class="st5" d="M74.96,34.87l1.33-4.78l10.48-10.58c0.08-0.09,0.89-0.89,2.02-0.89c0.66-0.01,1.3,0.28,1.83,0.81l0,0
				c1.39,1.39,0.8,3.05,0.06,3.83l-10.84,10.6L74.96,34.87z M77.48,30.78l-0.65,2.34l2.36-0.49l10.54-10.31
				c0.13-0.15,0.86-1.04-0.06-1.96c-0.4-0.4-0.8-0.51-1.26-0.35c-0.4,0.14-0.7,0.43-0.7,0.43L77.48,30.78z"/>
			
				<rect x="87.2" y="20.2" transform="matrix(0.7133 -0.7009 0.7009 0.7133 9.6075 67.9573)" class="st5" width="1.33" height="4.08"/>
			
				<rect x="84.96" y="22.37" transform="matrix(0.7132 -0.7009 0.7009 0.7132 7.4432 67.0153)" class="st5" width="1.33" height="4.08"/>
			
				<rect x="77.53" y="29.92" transform="matrix(0.73 -0.6835 0.6835 0.73 -0.6475 62.0451)" class="st5" width="1.33" height="3.85"/>
		</g>
		<path class="st5" d="M76.45,40c-11.03,0-20-8.97-20-20s8.97-20,20-20s20,8.97,20,20S87.48,40,76.45,40z M76.45,1.33
			C66.16,1.33,57.79,9.71,57.79,20s8.37,18.67,18.67,18.67S95.12,30.29,95.12,20S86.75,1.33,76.45,1.33z"/>
	</g>
</g>
</svg>
